<svg width="1600" height="900" viewBox="0 0 1600 900" xmlns="http://www.w3.org/2000/svg">
  <style>
    .territory {
      fill: none;
      stroke: #222;
      stroke-width: 2;
    }
  </style>
  <g id="north-america">
    <path class="territory" d="M150 150 L450 130 L520 220 L500 320 L420 360 L320 340 L260 380 L200 340 Z" />
    <path class="territory" d="M260 380 L360 420 L340 500 L260 520 L210 470 Z" />
    <path class="territory" d="M420 360 L520 360 L580 420 L540 480 L460 460 Z" />
  </g>
  <g id="south-america">
    <path class="territory" d="M360 520 L440 560 L460 640 L420 740 L360 780 L320 720 L320 620 Z" />
    <path class="territory" d="M440 560 L520 600 L520 680 L460 740 L420 740 L460 640 Z" />
  </g>
  <g id="europe">
    <path class="territory" d="M750 140 L880 140 L940 180 L920 240 L840 260 L760 230 Z" />
    <path class="territory" d="M840 260 L920 240 L980 280 L960 340 L900 360 L840 330 Z" />
    <path class="territory" d="M760 230 L840 260 L840 330 L780 360 L720 340 L700 280 Z" />
  </g>
  <g id="africa">
    <path class="territory" d="M780 360 L860 380 L900 440 L880 520 L840 580 L780 560 L740 500 L740 420 Z" />
    <path class="territory" d="M840 580 L900 600 L920 660 L900 720 L840 740 L800 700 L780 640 L780 560 Z" />
  </g>
  <g id="asia">
    <path class="territory" d="M980 280 L1120 260 L1220 280 L1260 340 L1240 400 L1160 420 L1080 400 L1040 340 Z" />
    <path class="territory" d="M1080 400 L1160 420 L1200 480 L1180 540 L1120 560 L1060 520 L1040 460 Z" />
    <path class="territory" d="M1220 280 L1320 260 L1400 300 L1420 360 L1380 420 L1320 420 L1260 340 Z" />
  </g>
  <g id="australia">
    <path class="territory" d="M1180 640 L1260 640 L1320 680 L1300 740 L1240 780 L1180 760 L1140 700 Z" />
    <path class="territory" d="M1260 640 L1340 620 L1400 660 L1400 720 L1360 760 L1300 740 L1320 680 Z" />
  </g>
  <g id="islands">
    <path class="territory" d="M600 260 L630 250 L650 270 L640 300 L610 300 Z" />
    <path class="territory" d="M1320 460 L1350 450 L1370 470 L1360 500 L1330 500 Z" />
  </g>
</svg>
